<svg xmlns="http://www.w3.org/2000/svg" width="820" height="470" viewBox="0 0 820 470">
<rect width="100%" height="100%" fill="#ffffff"/>
<text x="410.0" y="34" text-anchor="middle" font-family="Arial" font-size="22" font-weight="700">Median execution time</text>
<text x="28" y="235.0" transform="rotate(-90 28 235.0)" text-anchor="middle" font-family="Arial" font-size="14">Seconds</text>
<line x1="90" y1="365" x2="780" y2="365" stroke="#333" stroke-width="1"/>
<line x1="90" y1="70" x2="90" y2="365" stroke="#333" stroke-width="1"/>
<line x1="90" y1="365.0" x2="780" y2="365.0" stroke="#e6e6e6" stroke-width="1"/>
<text x="80" y="369.0" text-anchor="end" font-family="Arial" font-size="12" fill="#333">0.00</text>
<line x1="90" y1="291.2" x2="780" y2="291.2" stroke="#e6e6e6" stroke-width="1"/>
<text x="80" y="295.2" text-anchor="end" font-family="Arial" font-size="12" fill="#333">0.28</text>
<line x1="90" y1="217.5" x2="780" y2="217.5" stroke="#e6e6e6" stroke-width="1"/>
<text x="80" y="221.5" text-anchor="end" font-family="Arial" font-size="12" fill="#333">0.55</text>
<line x1="90" y1="143.8" x2="780" y2="143.8" stroke="#e6e6e6" stroke-width="1"/>
<text x="80" y="147.8" text-anchor="end" font-family="Arial" font-size="12" fill="#333">0.83</text>
<line x1="90" y1="70.0" x2="780" y2="70.0" stroke="#e6e6e6" stroke-width="1"/>
<text x="80" y="74.0" text-anchor="end" font-family="Arial" font-size="12" fill="#333">1.10</text>
<rect x="127.9" y="70.0" width="96.6" height="295.0" fill="#4C78A8"/>
<text x="176.2" y="84.0" text-anchor="middle" font-family="Arial" font-size="12" fill="#111">1.10</text>
<text x="176.2" y="393.0" text-anchor="middle" font-family="Arial" font-size="13" fill="#111">blocking</text>
<rect x="300.4" y="295.7" width="96.6" height="69.3" fill="#F58518"/>
<text x="348.8" y="287.7" text-anchor="middle" font-family="Arial" font-size="12" fill="#111">0.26</text>
<text x="348.8" y="393.0" text-anchor="middle" font-family="Arial" font-size="13" fill="#111">drop_newest</text>
<rect x="472.9" y="295.5" width="96.6" height="69.5" fill="#54A24B"/>
<text x="521.2" y="287.5" text-anchor="middle" font-family="Arial" font-size="12" fill="#111">0.26</text>
<text x="521.2" y="393.0" text-anchor="middle" font-family="Arial" font-size="13" fill="#111">drop_oldest</text>
<rect x="645.5" y="301.4" width="96.6" height="63.6" fill="#B279A2"/>
<text x="693.8" y="293.4" text-anchor="middle" font-family="Arial" font-size="12" fill="#111">0.24</text>
<text x="693.8" y="393.0" text-anchor="middle" font-family="Arial" font-size="13" fill="#111">adaptive_sampling</text>
</svg>